# xmcd
#
# Track frame offsets:
#	150
#	17725
#	30197
#	40523
#	54526
#	85151
#	95030
#	114790
#	125262
#	145562
#	167401
#	184826
#
# Disc length: 2659 seconds
# Revision: 0
# Processed by: cddbd v1.5.2PL0 Copyright (c) Steve Scherf et al.
# Submitted via: dBpowerAMP V12.0
#
DISCID=840a610c
DTITLE=Peter Rowan - Dust Bowl Children [Sugar Hill] (s)
DYEAR=2006
DGENRE=Country
TTITLE0=Dust Bowl Children
TTITLE1=Before the Streets Were Paved
TTITLE2=Electric Blanket
TTITLE3=Little Mother
TTITLE4=Barefoot Country Road
TTITLE5=Seeds My Daddy Sowed
TTITLE6=Tumbleweed
TTITLE7=Dream of A Home
TTITLE8=Rainmaker
TTITLE9=Forest for the Trees
TTITLE10=The Harvest
TTITLE11=Wings of Horses
EXTD=
EXTT0=
EXTT1=
EXTT2=
EXTT3=
EXTT4=
EXTT5=
EXTT6=
EXTT7=
EXTT8=
EXTT9=
EXTT10=
EXTT11=
PLAYORDER=
